# xmcd
#
# Track frame offsets: 
#        151
#        18066
#        38255
#        54264
#        80252
#        96350
#        110126
#        136144
#        147898
#        160742
#        180450
#        198941
#        217277
#
# Disc length: 3128 seconds
#
# Revision: 1
# Processed by: cddbd v1.5.2PL0 Copyright (c) Steve Scherf et al.
# Submitted via: ExactAudioCopy v1.0b1
#
DISCID=a40c360d
DTITLE=Shirley - Rouge
DYEAR=2004
DGENRE=Jazz
TTITLE0=The Colour of the Night
TTITLE1=給我一個吻
TTITLE2=梅蘭梅蘭我愛你
TTITLE3=Summer Time
TTITLE4=我的心袌只有你沒有他
TTITLE5=南屏晚鐘
TTITLE6=棷欖榭
TTITLE7=L-O-V-E
TTITLE8=魂縈舊夢
TTITLE9=惰人的眼淚\
TTITLE10=月亮代表我的心
TTITLE11=When u tell me that u love me
TTITLE12=酒醉的探戈
EXTD=YEAR: 2004
EXTT0=
EXTT1=
EXTT2=
EXTT3=
EXTT4=
EXTT5=
EXTT6=
EXTT7=
EXTT8=
EXTT9=
EXTT10=
EXTT11=
EXTT12=
PLAYORDER=
